<svg xmlns="http://www.w3.org/2000/svg" width="1380" height="650" fill="none">
<path stroke="url(#a)" stroke-linecap="round" stroke-linejoin="round" stroke-width="2" d="M1378.95-17.466c-43.03 199.636-84.03 367.659-173.18 403.848-89.15 36.188-155.98-63.684-219.646-46.845-63.669 16.839-81.065 75.484-88.988 128.472-7.924 52.987-24.217 157.278-101.375 177.685-77.158 20.407-141.2-68.942-171.646-105.477-30.446-36.534-105.177-109.545-177.479-90.422-72.302 19.122-81.017 73.484-151.166 85.467-70.149 11.983-114.18-56.272-185.403-37.435-71.223 18.837-43.133 72.658-109.5 90.21"/>
<defs>
<linearGradient id="a" x1="1419.5" x2="-58.992" y1="-51.5" y2="362.842" gradientUnits="userSpaceOnUse">
<stop stop-color="#FF59F8" stop-opacity="0"/>
<stop offset=".345" stop-color="#AE72FF"/>
<stop offset=".491" stop-color="#90E9ED"/>
<stop offset=".683" stop-color="#5CD167"/>
<stop offset="1" stop-color="#FE0" stop-opacity="0"/>
</linearGradient></defs>
</svg>