<svg width="33" height="33" viewBox="0 0 33 33" fill="none" xmlns="http://www.w3.org/2000/svg">
<g clip-path="url(#clip0_1821_518)">
<path d="M24.3517 21.3902C28.4092 19.3087 31.4851 17.7226 31.7502 17.5993C32.5984 17.1779 33.4742 16.0626 31.7502 15.1962C31.1936 14.9238 28.1967 13.3871 24.3517 11.4053L19.0215 16.4348L24.3517 21.3901V21.3902Z" fill="#FFD900"/>
<path d="M19.021 16.4346L2.04883 32.4162C2.4472 32.4655 2.89695 32.3668 3.4272 32.0945C4.54045 31.5251 16.342 25.5037 24.3512 21.3912L19.021 16.4346Z" fill="#F43249"/>
<path d="M19.021 16.4351L24.3512 11.4303C24.3512 11.4303 4.62096 1.37006 3.42721 0.776189C2.97746 0.527313 2.47346 0.453386 2.02246 0.527313L19.021 16.4351Z" fill="#00EE76"/>
<path d="M19.0214 16.437L2.02287 0.529297C1.333 0.678319 0.75 1.24778 0.75 2.41239V30.5356C0.75 31.6015 1.20113 32.3693 2.04925 32.4433L19.0214 16.437Z" fill="#00D3FF"/>
</g>
<defs>
<clipPath id="clip0_1821_518">
<rect width="32" height="32" fill="white" transform="translate(0.75 0.5)"/>
</clipPath>
</defs>
</svg>
