<svg width="44" height="44" viewBox="0 0 44 44" fill="none" xmlns="http://www.w3.org/2000/svg">
<path fill-rule="evenodd" clip-rule="evenodd" d="M34.5862 9.39378C35.3873 9.67428 35.9227 10.4296 35.9227 11.2784V23.6956C35.9227 27.1661 34.6613 30.4789 32.4338 33.0456C31.3137 34.3381 29.8965 35.3446 28.3913 36.1586L21.8683 39.6823L15.3343 36.1568C13.8273 35.3428 12.4083 34.3381 11.2863 33.0438C9.05699 30.4771 7.79199 27.1624 7.79199 23.6883V11.2784C7.79199 10.4296 8.32733 9.67428 9.12849 9.39378L21.1955 5.15328C21.6245 5.00294 22.092 5.00294 22.5192 5.15328L34.5862 9.39378Z" stroke="#11CABE" stroke-width="1.5" stroke-linecap="round" stroke-linejoin="round"/>
<path d="M17.0918 21.8492L20.5605 25.3197L27.7068 18.1733" stroke="#11CABE" stroke-width="1.5" stroke-linecap="round" stroke-linejoin="round"/>
</svg>
