<svg width="24" height="25" viewBox="0 0 24 25" fill="none" xmlns="http://www.w3.org/2000/svg">
<g clip-path="url(#clip0_1914_6619)">
<path d="M23.641 15.4019C22.0377 21.8339 15.521 25.7439 9.09824 24.1405C2.66605 22.5371 -1.24389 16.0208 0.359518 9.59805C1.96283 3.16605 8.47002 -0.743887 14.9022 0.859519C21.325 2.45346 25.2444 8.96983 23.641 15.4019Z" fill="url(#paint0_linear_1914_6619)"/>
<path d="M17.7141 11.0045C17.9484 9.41074 16.7391 8.54824 15.0703 7.97637L15.6141 5.81074L14.3016 5.48262L13.7766 7.59199C13.4297 7.50762 13.0734 7.42324 12.7172 7.34824L13.2422 5.22949L11.9297 4.90137L11.3953 7.05762C11.1047 6.99199 10.8234 6.92637 10.5516 6.86074V6.85137L8.73281 6.40137L8.38594 7.80762C8.38594 7.80762 9.36094 8.03262 9.34219 8.04199C9.87656 8.17324 9.97031 8.52949 9.95156 8.81074L9.33281 11.2764C9.37031 11.2857 9.41719 11.2951 9.47344 11.3232C9.42656 11.3139 9.37969 11.3045 9.33281 11.2857L8.47031 14.7357C8.40469 14.8951 8.23594 15.1389 7.87031 15.0451C7.87969 15.0639 6.91406 14.8107 6.91406 14.8107L6.25781 16.3201L7.97344 16.7514C8.29219 16.8357 8.60156 16.9107 8.91094 16.9951L8.36719 19.1795L9.67969 19.5076L10.2234 17.342C10.5797 17.4357 10.9359 17.5295 11.2734 17.6139L10.7391 19.7701L12.0516 20.0982L12.5953 17.9139C14.8453 18.3357 16.5328 18.167 17.2359 16.1326C17.8078 14.5014 17.2078 13.5545 16.0266 12.9357C16.8984 12.7389 17.5453 12.167 17.7141 11.0045ZM14.7047 15.2232C14.3016 16.8545 11.5453 15.9732 10.6547 15.7482L11.3766 12.8514C12.2672 13.0764 15.1359 13.517 14.7047 15.2232ZM15.1172 10.9764C14.7422 12.467 12.4547 11.7076 11.7141 11.5201L12.3703 8.89512C13.1109 9.08262 15.5016 9.42949 15.1172 10.9764Z" fill="white"/>
</g>
<defs>
<linearGradient id="paint0_linear_1914_6619" x1="11.9935" y1="0.49424" x2="11.9935" y2="24.4976" gradientUnits="userSpaceOnUse">
<stop stop-color="#F9AA4B"/>
<stop offset="1" stop-color="#F7931A"/>
</linearGradient>
<clipPath id="clip0_1914_6619">
<rect width="24" height="24" fill="white" transform="translate(0 0.5)"/>
</clipPath>
</defs>
</svg>
