<svg width="25" height="24" viewBox="0 0 25 24" fill="none" xmlns="http://www.w3.org/2000/svg">
<path d="M12.5763 8.87628C10.856 8.87628 9.45206 10.2802 9.45206 12.0005C9.45206 13.7208 10.856 15.1247 12.5763 15.1247C14.2966 15.1247 15.7005 13.7208 15.7005 12.0005C15.7005 10.2802 14.2966 8.87628 12.5763 8.87628ZM21.9466 12.0005C21.9466 10.7068 21.9583 9.42472 21.8857 8.13331C21.813 6.63331 21.4708 5.30206 20.3739 4.20519C19.2747 3.10597 17.9458 2.76613 16.4458 2.69347C15.1521 2.62081 13.87 2.63253 12.5786 2.63253C11.2849 2.63253 10.0028 2.62081 8.71144 2.69347C7.21144 2.76613 5.88019 3.10831 4.78331 4.20519C3.6841 5.30441 3.34425 6.63331 3.2716 8.13331C3.19894 9.42706 3.21066 10.7091 3.21066 12.0005C3.21066 13.2919 3.19894 14.5763 3.2716 15.8677C3.34425 17.3677 3.68644 18.6989 4.78331 19.7958C5.88253 20.895 7.21144 21.2349 8.71144 21.3075C10.0052 21.3802 11.2872 21.3685 12.5786 21.3685C13.8724 21.3685 15.1544 21.3802 16.4458 21.3075C17.9458 21.2349 19.2771 20.8927 20.3739 19.7958C21.4732 18.6966 21.813 17.3677 21.8857 15.8677C21.9607 14.5763 21.9466 13.2943 21.9466 12.0005ZM12.5763 16.8075C9.91613 16.8075 7.76925 14.6607 7.76925 12.0005C7.76925 9.34035 9.91613 7.19347 12.5763 7.19347C15.2364 7.19347 17.3833 9.34035 17.3833 12.0005C17.3833 14.6607 15.2364 16.8075 12.5763 16.8075ZM17.5802 8.11925C16.9591 8.11925 16.4575 7.61769 16.4575 6.9966C16.4575 6.3755 16.9591 5.87394 17.5802 5.87394C18.2013 5.87394 18.7028 6.3755 18.7028 6.9966C18.703 7.14408 18.6741 7.29015 18.6178 7.42644C18.5614 7.56273 18.4787 7.68656 18.3744 7.79085C18.2702 7.89513 18.1463 7.97782 18.01 8.03417C17.8737 8.09053 17.7277 8.11944 17.5802 8.11925Z" fill="#5D6588"/>
</svg>
