<svg width="44" height="44" viewBox="0 0 44 44" fill="none" xmlns="http://www.w3.org/2000/svg">
<path d="M26.0332 3.6665H21.6332C21.0253 3.6665 20.5332 4.15858 20.5332 4.7665C20.5332 5.37443 21.0253 5.8665 21.6332 5.8665H26.0332C26.6411 5.8665 27.1332 5.37443 27.1332 4.7665C27.1332 4.15858 26.6411 3.6665 26.0332 3.6665Z" fill="#BD47FB"/>
<path d="M30.8008 0H13.2008C10.7749 0 8.80078 1.97416 8.80078 4.4V39.6C8.80078 42.0258 10.7749 44 13.2008 44H30.8008C33.2266 44 35.2008 42.0258 35.2008 39.6V4.4C35.2008 1.97416 33.2266 0 30.8008 0ZM33.0008 39.6C33.0008 40.8152 32.0159 41.8 30.8008 41.8H13.2008C11.9856 41.8 11.0008 40.8152 11.0008 39.6V4.4C11.0008 3.18484 11.9856 2.2 13.2008 2.2H30.8008C32.0159 2.2 33.0008 3.18484 33.0008 4.4V39.6Z" fill="#BD47FB"/>
<path d="M22.0008 40.3331C23.2158 40.3331 24.2008 39.3481 24.2008 38.1331C24.2008 36.9181 23.2158 35.9331 22.0008 35.9331C20.7858 35.9331 19.8008 36.9181 19.8008 38.1331C19.8008 39.3481 20.7858 40.3331 22.0008 40.3331Z" fill="#BD47FB"/>
<path d="M17.9662 5.8665C18.5737 5.8665 19.0662 5.37402 19.0662 4.7665C19.0662 4.15899 18.5737 3.6665 17.9662 3.6665C17.3587 3.6665 16.8662 4.15899 16.8662 4.7665C16.8662 5.37402 17.3587 5.8665 17.9662 5.8665Z" fill="#BD47FB"/>
</svg>
