<svg width="24" height="25" viewBox="0 0 24 25" fill="none" xmlns="http://www.w3.org/2000/svg">
<g clip-path="url(#clip0_1743_6634)">
<circle cx="12" cy="12.5" r="12" fill="white"/>
<path fill-rule="evenodd" clip-rule="evenodd" d="M12 24.5C5.37225 24.5 0 19.1278 0 12.5C0 5.87225 5.37225 0.5 12 0.5C18.6278 0.5 24 5.87225 24 12.5C24 19.1278 18.6278 24.5 12 24.5ZM16.875 14.8655C16.875 12.9732 15.693 11.9045 12.9277 11.2385V7.9085C13.7827 8.084 14.601 8.45225 15.4012 9.0305L16.4205 7.3835C15.4165 6.64815 14.2373 6.18888 13.0005 6.0515V5H11.418V6.01625C9.144 6.19175 7.59825 7.4885 7.59825 9.38075C7.59825 11.3608 8.835 12.3245 11.4908 12.9905V16.4255C10.308 16.25 9.32625 15.7243 8.289 14.918L7.125 16.5125C8.37096 17.4717 9.85551 18.0718 11.418 18.248V20H13.0005V18.2653C15.3105 18.0725 16.875 16.793 16.875 14.8655ZM11.49 10.8702C10.0897 10.4675 9.74475 9.99425 9.74475 9.25775C9.74475 8.4875 10.3448 7.874 11.4908 7.78625L11.49 10.8702ZM14.7285 14.9877C14.7285 15.8292 14.0737 16.4075 12.9277 16.4952V13.3235C14.3467 13.727 14.7285 14.1995 14.7285 14.9885V14.9877Z" fill="#1E68F6"/>
</g>
<defs>
<clipPath id="clip0_1743_6634">
<rect width="24" height="24" fill="white" transform="translate(0 0.5)"/>
</clipPath>
</defs>
</svg>
