<svg width="44" height="44" viewBox="0 0 44 44" fill="none" xmlns="http://www.w3.org/2000/svg">
<path d="M32.2568 20.0417C35.1944 20.0417 37.5775 17.6604 37.5775 14.7228C37.5775 11.7852 35.1944 9.40381 32.2568 9.40381" stroke="#BD47FB" stroke-width="1.5" stroke-linecap="round" stroke-linejoin="round"/>
<path d="M34.7031 25.8223C35.5804 25.8828 36.4526 26.0071 37.3113 26.2004C38.5045 26.434 39.9397 26.923 40.4506 27.9935C40.7767 28.6792 40.7767 29.4775 40.4506 30.1648C39.9414 31.2353 38.5045 31.7227 37.3113 31.9681" stroke="#BD47FB" stroke-width="1.5" stroke-linecap="round" stroke-linejoin="round"/>
<path d="M11.5316 20.0417C8.59397 20.0417 6.21094 17.6604 6.21094 14.7228C6.21094 11.7852 8.59397 9.40381 11.5316 9.40381" stroke="#BD47FB" stroke-width="1.5" stroke-linecap="round" stroke-linejoin="round"/>
<path d="M9.08535 25.8223C8.2081 25.8828 7.33589 26.0071 6.47713 26.2004C5.28393 26.434 3.84874 26.923 3.33953 27.9935C3.01182 28.6792 3.01182 29.4775 3.33953 30.1648C3.84706 31.2353 5.28393 31.7227 6.47713 31.9681" stroke="#BD47FB" stroke-width="1.5" stroke-linecap="round" stroke-linejoin="round"/>
<path fill-rule="evenodd" clip-rule="evenodd" d="M21.8855 26.9678C27.8381 26.9678 32.9234 27.8686 32.9234 31.4733C32.9234 35.0765 27.8717 36.0108 21.8855 36.0108C15.9313 36.0108 10.8477 35.1101 10.8477 31.5053C10.8477 27.9005 15.8994 26.9678 21.8855 26.9678Z" stroke="#BD47FB" stroke-width="1.5" stroke-linecap="round" stroke-linejoin="round"/>
<path fill-rule="evenodd" clip-rule="evenodd" d="M21.886 21.8258C17.9602 21.8258 14.8125 18.6782 14.8125 14.7507C14.8125 10.8249 17.9602 7.67725 21.886 7.67725C25.8117 7.67725 28.9594 10.8249 28.9594 14.7507C28.9594 18.6782 25.8117 21.8258 21.886 21.8258Z" stroke="#BD47FB" stroke-width="1.5" stroke-linecap="round" stroke-linejoin="round"/>
</svg>
