<svg xmlns="http://www.w3.org/2000/svg" width="448" height="702" fill="none"><mask id="b" fill="#fff"><path d="M903.539 352.342a742.712 742.712 0 0 0 7.273-9.165c43.037-55.125 66.795-101.651 70.612-138.289 3.647-35.002-11.275-59.952-44.349-74.154C834.928 81.029 741.226 51.708 672.807 30.298c-27.131-8.49-50.562-15.821-69.136-22.73C571.009-4.516 520.163-.104 464.17 19.674c-57.167 20.193-111.054 53.734-147.843 92.025-70.77 77.609-190.528 159.765-271.853 203.262-24.463 13.119-39.279 34.541-42.847 61.952-6.237 47.907 22.51 108.605 75.023 158.405l-.003-.003c52.902 50.682 105.235 98.761 163.759 129.98 31.553 16.832 62.447 27.583 94.449 32.867 35.55 5.87 71.508 4.884 109.929-3.015 34.46-6.507 83.587-29.422 142.059-66.266 55.662-35.074 117.411-81.556 173.872-130.883 56.391-49.267 105.541-99.41 142.824-145.655Zm-883.592-15.16c6.656-8.257 15.15-15.212 25.364-20.688 81.451-43.565 201.407-125.862 272.299-203.607 36.594-38.085 90.235-71.469 147.154-91.575C520.377 1.67 570.789-2.746 603.072 9.2c18.616 6.923 42.067 14.26 69.222 22.758 68.365 21.394 161.995 50.692 264.061 100.356 32.324 13.881 46.89 38.229 43.332 72.384-3.784 36.31-27.421 82.54-70.256 137.406-38.002 48.647-89.815 102.113-149.873 154.582-56.396 49.271-118.068 95.695-173.656 130.723-58.289 36.728-107.209 59.562-141.468 66.033-38.221 7.857-73.97 8.84-109.304 3.005-31.808-5.252-62.525-15.943-93.906-32.683-58.327-31.114-110.559-79.104-163.369-129.698l-.003-.003C25.74 484.64-2.804 424.514 3.362 377.148c2.002-15.393 7.63-28.859 16.584-39.966Z"/></mask><path fill="url(#a)" d="m903.539 352.342-1.566-1.257 1.566 1.257Zm7.273-9.165-1.586-1.233v-.001l1.586 1.234Zm70.612-138.289 1.993.221-1.993-.221Zm-44.349-74.154-.782 1.832-.044-.019-.043-.021.869-1.792ZM672.807 30.298l.587-1.904-.587 1.904Zm-69.136-22.73.685-1.87.003.001-.688 1.87ZM464.17 19.674l-.683-1.882.683 1.882Zm-147.843 92.025-1.487-1.349.017-.019.018-.019 1.452 1.387ZM44.474 314.96l-.96-1.759.002-.001.958 1.76ZM1.627 376.912l1.987.271v.001l-1.987-.272ZM76.65 535.317l1.518-1.291-2.894 2.732 1.376-1.441Zm-.003-.003-1.519 1.29 2.902-2.724-1.383 1.434Zm163.759 129.98-.935 1.758.935-1.758Zm94.449 32.867-.313 1.97.313-1.97Zm109.929-3.015-.419-1.955.015-.003.016-.003.388 1.961Zm142.059-66.266 1.081 1.689-1.081-1.689Zm173.872-130.883 1.327 1.505-1.327-1.505ZM19.946 337.182l1.566 1.257-1.566-1.257Zm25.365-20.688-.96-1.76.002-.001.958 1.761ZM317.61 112.887l-1.488-1.348.017-.019.018-.019 1.453 1.386Zm147.154-91.575-.682-1.882.682 1.882ZM603.072 9.2l.685-1.87h.003l-.688 1.87Zm69.222 22.758.587-1.904-.587 1.904Zm264.061 100.356-.782 1.832-.044-.019-.043-.021.869-1.792Zm43.332 72.384 1.993.221-1.993-.221Zm-70.256 137.406 1.585 1.233-.001.001-1.584-1.234ZM759.558 496.685l-1.328-1.505 1.328 1.505ZM585.902 627.408l1.08 1.689-1.08-1.689Zm-141.468 66.033-.42-1.956.016-.003.016-.003.388 1.962Zm-109.304 3.005-.313 1.97.313-1.97Zm-93.906-32.683.935-1.759-.935 1.759ZM77.855 534.065l-1.383 1.434-.075-.073-.068-.08 1.526-1.281Zm-.003-.003 1.376-1.441.08.075.071.084-1.527 1.282ZM3.362 377.148l1.988.271-1.987-.271Zm898.611-26.063a729.38 729.38 0 0 0 7.253-9.141l3.171 2.465a722.989 722.989 0 0 1-7.293 9.191l-3.131-2.515Zm7.253-9.142c42.983-55.054 66.448-101.212 70.205-137.276l3.986.442c-3.877 37.212-27.927 84.106-71.02 139.301l-3.171-2.467Zm70.205-137.276c1.789-17.169-.989-31.704-8.13-43.644-7.143-11.943-18.766-21.483-35.008-28.457l1.563-3.664c16.833 7.228 29.208 17.264 36.883 30.097 7.677 12.836 10.536 28.277 8.678 46.11l-3.986-.442Zm-43.225-72.141C834.209 82.894 740.637 53.612 672.22 32.202l1.174-3.808c68.421 21.41 162.252 50.77 264.549 100.547l-1.737 3.585ZM672.22 32.202c-27.113-8.484-50.602-15.833-69.237-22.764l1.376-3.739c18.513 6.886 41.886 14.2 69.035 22.695l-1.174 3.808ZM602.986 9.44c-32-11.842-82.296-7.608-138.134 12.115l-1.365-3.764C519.635-2.042 571.032-6.633 604.356 5.698l-1.37 3.742ZM464.852 21.555c-56.915 20.104-110.525 53.49-147.072 91.529l-2.905-2.773c37.031-38.542 91.194-72.239 148.612-92.52l1.365 3.764Zm-147.037 91.491c-70.974 77.832-190.94 160.114-272.383 203.675l-1.916-3.521c81.207-43.435 200.756-125.464 271.324-202.851l2.975 2.697ZM45.434 316.72c-23.903 12.818-38.335 33.689-41.82 60.463l-3.974-.543c3.65-28.046 18.85-50.02 43.874-63.439l1.92 3.519Zm-41.82 60.464c-6.12 47.007 22.127 107.109 74.411 156.692l-2.75 2.882C22.532 486.741-6.716 425.446-.36 376.64l3.974.544Zm71.517 159.424-.003-.004 3.037-2.581.003.003-3.037 2.582Zm2.899-2.728c52.918 50.698 105.066 98.585 163.311 129.656l-1.87 3.516c-58.804-31.368-111.321-79.638-164.207-130.304l2.766-2.868ZM241.34 663.536c31.379 16.738 62.064 27.411 93.827 32.656l-.626 3.939c-32.24-5.324-63.343-16.154-95.071-33.079l1.87-3.516Zm93.827 32.656c35.285 5.826 70.994 4.853 109.197-3.001l.838 3.91c-38.639 7.945-74.847 8.943-110.661 3.03l.626-3.939Zm109.228-3.007c34.075-6.435 82.941-29.18 141.367-65.995l2.161 3.379c-58.518 36.873-107.908 59.959-142.753 66.539l-.775-3.923Zm141.367-65.995c55.563-35.011 117.23-81.43 173.624-130.698l2.655 3.01c-56.528 49.386-118.359 95.932-174.118 131.067l-2.161-3.379Zm173.624-130.698c56.326-49.209 105.391-99.271 142.586-145.407l3.131 2.515c-37.37 46.353-86.605 96.578-143.062 145.902l-2.655-3.01ZM18.381 335.925c6.835-8.479 15.54-15.598 25.97-21.191l1.92 3.519c-9.997 5.361-18.28 12.15-24.759 20.186l-3.131-2.514Zm25.972-21.192c81.333-43.501 201.08-125.672 271.769-203.194l2.975 2.697c-71.094 77.967-191.259 160.39-272.828 204.018l-1.916-3.521Zm271.804-203.232c36.837-38.338 90.754-71.876 147.925-92.07l1.365 3.764c-56.669 20.017-110.033 53.245-146.385 91.079l-2.905-2.773Zm147.925-92.07C519.847-.268 570.81-4.864 603.757 7.327l-1.37 3.742c-31.619-11.7-81.479-7.466-136.94 12.125l-1.365-3.765ZM603.76 7.33c18.555 6.9 41.947 14.22 69.121 22.723l-1.174 3.808c-27.137-8.491-50.646-15.847-69.323-22.792l1.376-3.74Zm69.121 22.723c68.367 21.394 162.127 50.73 264.342 100.467l-1.737 3.585C833.571 84.515 740.07 55.255 671.707 33.862l1.174-3.809Zm264.255 100.428c16.457 7.067 28.556 16.872 36.06 29.409 7.505 12.539 10.298 27.618 8.484 45.028l-3.986-.442c1.744-16.746-.967-30.917-7.936-42.561-6.971-11.646-18.318-20.956-34.185-27.77l1.563-3.664Zm44.544 74.437c-3.844 36.886-27.775 83.483-70.664 138.418l-3.171-2.466c42.782-54.797 66.125-100.659 69.849-136.394l3.986.442Zm-70.665 138.419c-38.096 48.768-90.003 102.324-150.13 154.854l-2.655-3.011c59.99-52.409 111.71-105.786 149.616-154.311l3.169 2.468Zm-150.13 154.854c-56.462 49.329-118.217 95.817-173.903 130.906l-2.161-3.379c55.491-34.965 117.081-81.326 173.409-130.538l2.655 3.011ZM586.982 629.097c-58.334 36.757-107.516 59.762-142.161 66.305l-.775-3.923c33.874-6.398 82.532-29.061 140.775-65.761l2.161 3.379Zm-142.129 66.299c-38.439 7.902-74.437 8.898-110.036 3.02l.626-3.939c35.069 5.791 70.569 4.821 108.571-2.992l.839 3.911Zm-110.036 3.02c-32.046-5.292-62.973-16.061-94.528-32.895l1.87-3.517c31.206 16.647 61.714 27.26 93.284 32.473l-.626 3.939Zm-94.528-32.895c-58.606-31.263-111.023-79.444-163.817-130.022l2.766-2.868c52.827 50.61 104.874 98.408 162.921 129.373l-1.87 3.517ZM76.329 535.346l-.003-.003 3.053-2.563.003.004-3.053 2.562Zm.148.157C24.137 485.866-4.908 425.144 1.376 376.876l3.974.543C-.7 423.884 27.34 483.413 79.228 532.621l-2.751 2.882ZM1.375 376.876c2.046-15.727 7.806-29.54 17.006-40.951l3.131 2.514c-8.71 10.804-14.204 23.922-16.162 38.98l-3.975-.543Z" mask="url(#b)"/><defs><linearGradient id="a" x1="470.5" x2="506.931" y1="18.5" y2="680.904" gradientUnits="userSpaceOnUse"><stop stop-color="#FF59F8" stop-opacity="0"/><stop offset=".345" stop-color="#AE72FF"/><stop offset=".491" stop-color="#90E9ED"/><stop offset=".683" stop-color="#5CD167"/><stop offset="1" stop-color="#FE0" stop-opacity="0"/></linearGradient></defs></svg>