<svg width="32" height="32" viewBox="0 0 32 32" fill="none" xmlns="http://www.w3.org/2000/svg">
<g id="Iconly/Light-outline/Arrow - Right Circle">
<g id="Arrow - Right Circle">
<path id="Arrow - Right Circle_2" fill-rule="evenodd" clip-rule="evenodd" d="M2.66699 15.9997C2.66699 23.3635 8.63693 29.333 16.0003 29.333C23.3637 29.333 29.3337 23.3635 29.3337 15.9997C29.3337 8.63672 23.3633 2.66634 16.0003 2.66634C8.63737 2.66634 2.66699 8.63672 2.66699 15.9997ZM4.66699 15.9997C4.66699 9.74129 9.74194 4.66634 16.0003 4.66634C22.2587 4.66634 27.3337 9.74129 27.3337 15.9997C27.3337 22.2589 22.2592 27.333 16.0003 27.333C9.74147 27.333 4.66699 22.2589 4.66699 15.9997ZM13.2746 20.0313C12.9833 20.4221 13.0143 20.9777 13.3686 21.3335C13.7583 21.7249 14.3914 21.7263 14.7828 21.3366L19.4308 16.7086L19.5281 16.5963C19.8201 16.2042 19.7877 15.6466 19.4308 15.2913L14.7828 10.6633L14.6704 10.5667C14.2783 10.2771 13.7229 10.3106 13.3686 10.6664L13.272 10.7787C12.9824 11.1708 13.0159 11.7263 13.3717 12.0806L17.307 16.0013L13.3717 19.9193L13.2746 20.0313Z" fill="white"/>
</g>
</g>
</svg>
