<svg width="32" height="32" viewBox="0 0 32 32" fill="none" xmlns="http://www.w3.org/2000/svg">
<g id="Iconly/Light-outline/Arrow - Left Circle">
<g id="Arrow - Left Circle">
<path id="Arrow - Left Circle_2" fill-rule="evenodd" clip-rule="evenodd" d="M29.333 16.0003C29.333 8.63648 23.3631 2.66699 15.9997 2.66699C8.63628 2.66699 2.66634 8.63648 2.66634 16.0003C2.66634 23.3633 8.63672 29.3337 15.9997 29.3337C23.3626 29.3337 29.333 23.3633 29.333 16.0003ZM27.333 16.0003C27.333 22.2587 22.2581 27.3337 15.9997 27.3337C9.74129 27.3337 4.66634 22.2587 4.66634 16.0003C4.66634 9.74109 9.74081 4.66699 15.9997 4.66699C22.2585 4.66699 27.333 9.74109 27.333 16.0003ZM18.7254 11.9687C19.0167 11.5779 18.9857 11.0223 18.6314 10.6665C18.2417 10.2751 17.6086 10.2738 17.2172 10.6634L12.5692 15.2914L12.4719 15.4037C12.1799 15.7958 12.2123 16.3534 12.5692 16.7087L17.2172 21.3367L17.3296 21.4333C17.7217 21.7229 18.2771 21.6894 18.6314 21.3336L18.728 21.2213C19.0176 20.8292 18.9841 20.2737 18.6283 19.9194L14.693 15.9987L18.6283 12.0807L18.7254 11.9687Z" fill="white"/>
</g>
</g>
</svg>
