<svg width="10" height="15" viewBox="0 0 10 15" fill="none" xmlns="http://www.w3.org/2000/svg">
<path d="M9.50874 7.61789C9.40355 7.4229 9.20351 7.30133 8.98594 7.30133H5.59807V0.611912C5.59807 0.274137 5.33029 0 5.00035 0C4.67041 0 4.40263 0.274137 4.40263 0.611912V7.30133H1.01475C0.796387 7.30133 0.596351 7.4229 0.491949 7.61789C0.385953 7.81289 0.393126 8.05113 0.508685 8.2396L4.49428 14.7144C4.60426 14.8923 4.79473 15 5.00035 15C5.20596 15 5.39644 14.8923 5.50642 14.7144L9.49201 8.2396C9.55258 8.14006 9.58366 8.02665 9.58366 7.91324C9.58366 7.81207 9.55816 7.71009 9.50874 7.61789" fill="#FA2256"/>
</svg>
