<svg width="44" height="44" viewBox="0 0 44 44" fill="none" xmlns="http://www.w3.org/2000/svg">
<g clip-path="url(#clip0_1816_5104)">
<path d="M43.3419 27.3202C40.4025 39.1122 28.4553 46.2804 16.6801 43.3408C4.88776 40.4014 -2.28046 28.4547 0.659117 16.6798C3.59852 4.88776 15.5284 -2.28046 27.3207 0.659118C39.0959 3.58134 46.2814 15.528 43.3419 27.3202Z" fill="url(#paint0_linear_1816_5104)"/>
<path d="M32.4748 19.2584C32.9045 16.3365 30.6873 14.7553 27.6279 13.7068L28.6248 9.73652L26.2186 9.13496L25.2561 13.0021C24.6201 12.8475 23.967 12.6928 23.3139 12.5553L24.2764 8.6709L21.8701 8.06934L20.8904 12.0225C20.3576 11.9021 19.842 11.7818 19.3436 11.6615V11.6443L16.0092 10.8193L15.3732 13.3975C15.3732 13.3975 17.1607 13.81 17.1264 13.8271C18.1061 14.0678 18.2779 14.7209 18.2436 15.2365L17.1092 19.7568C17.1779 19.774 17.2639 19.7912 17.367 19.8428C17.2811 19.8256 17.1951 19.8084 17.1092 19.774L15.5279 26.099C15.4076 26.3912 15.0982 26.8381 14.4279 26.6662C14.4451 26.7006 12.6748 26.2365 12.6748 26.2365L11.4717 29.0037L14.617 29.7943C15.2014 29.949 15.7686 30.0865 16.3357 30.2412L15.3389 34.2459L17.7451 34.8475L18.742 30.8772C19.3951 31.049 20.0482 31.2209 20.667 31.3756L19.6873 35.3287L22.0936 35.9303L23.0904 31.9256C27.2154 32.699 30.3092 32.3897 31.5982 28.66C32.6467 25.6693 31.5467 23.9334 29.3811 22.799C30.9795 22.4381 32.1654 21.3897 32.4748 19.2584ZM26.9576 26.9928C26.2186 29.9834 21.1654 28.3678 19.5326 27.9553L20.8561 22.6443C22.4889 23.0568 27.7482 23.8647 26.9576 26.9928ZM27.7139 19.2068C27.0264 21.9397 22.8326 20.5475 21.4748 20.2037L22.6779 15.3912C24.0357 15.735 28.4186 16.3709 27.7139 19.2068Z" fill="white"/>
</g>
<defs>
<linearGradient id="paint0_linear_1816_5104" x1="21.9881" y1="-0.01056" x2="21.9881" y2="43.9956" gradientUnits="userSpaceOnUse">
<stop stop-color="#F9AA4B"/>
<stop offset="1" stop-color="#F7931A"/>
</linearGradient>
<clipPath id="clip0_1816_5104">
<rect width="44" height="44" fill="white"/>
</clipPath>
</defs>
</svg>
