<svg width="11" height="15" viewBox="0 0 11 15" fill="none" xmlns="http://www.w3.org/2000/svg">
<path d="M0.991906 7.3821C1.0971 7.5771 1.29714 7.69867 1.51471 7.69867H4.90258V14.3881C4.90258 14.7259 5.17036 15 5.5003 15C5.83025 15 6.09802 14.7259 6.09802 14.3881V7.69867H9.4859C9.70426 7.69867 9.9043 7.5771 10.0087 7.3821C10.1147 7.18711 10.1075 6.94887 9.99197 6.7604L6.00637 0.285559C5.89639 0.107696 5.70592 0 5.5003 0C5.29469 0 5.10422 0.107696 4.99424 0.285559L1.00864 6.7604C0.948074 6.85994 0.916992 6.97335 0.916992 7.08676C0.916992 7.18792 0.942495 7.28991 0.991906 7.3821Z" fill="#11CABE"/>
</svg>
