<svg width="138" height="38" viewBox="0 0 138 38" fill="none" xmlns="http://www.w3.org/2000/svg">
<path d="M4.52082 34.5794L1 32.4163V37C1 37.5523 1.44772 38 2 38H137C137.552 38 138 37.5523 138 37V19.6204L135.83 24.42C135.737 24.6264 135.576 24.795 135.374 24.8982L132.502 26.369C131.976 26.6382 131.332 26.3954 131.116 25.846L128.067 18.1207C127.917 17.7388 127.548 17.4878 127.137 17.4878H124.817C124.395 17.4878 124.019 17.2239 123.876 16.8279L122.367 12.6546C122.11 11.9453 121.191 11.7646 120.685 12.324L119.784 13.3197C119.595 13.5294 119.325 13.649 119.043 13.649H112.428C112.203 13.649 111.985 13.5731 111.809 13.4337L109.736 11.7963C109.262 11.4219 108.567 11.5499 108.257 12.0685L104.816 17.8339C104.386 18.5539 103.315 18.4572 103.021 17.6719L99.2511 7.59697C99.1675 7.37371 99.007 7.18763 98.7984 7.07229L94.7918 4.8569C94.5982 4.74989 94.3747 4.71005 94.1561 4.74362L89.5309 5.45401C89.1666 5.50997 88.801 5.36095 88.5796 5.06623L85.5654 1.05398C85.1678 0.5246 84.3747 0.520892 83.972 1.04653L80.0628 6.15021C79.6479 6.69189 78.8243 6.66813 78.4413 6.10342L77.7583 5.09642C77.3549 4.5016 76.4745 4.51385 76.0878 5.11967L73.2251 9.60458C72.8073 10.259 71.8357 10.2085 71.488 9.51434L67.6998 1.95042C67.3167 1.18547 66.2123 1.22355 65.8828 2.01307L62.3512 10.475C62.1958 10.8473 61.8318 11.0898 61.4284 11.0898H59.5068C59.1105 11.0898 58.7516 11.3238 58.5917 11.6864L52.9219 24.548C52.8665 24.6738 52.7857 24.7869 52.6846 24.88L46.0665 30.9789C45.7022 31.3147 45.1469 31.333 44.7612 31.022L42.1325 28.9023C41.8799 28.6986 41.5442 28.6302 41.232 28.7187L36.3025 30.1165C35.9407 30.2191 35.667 30.516 35.5942 30.885L34.9463 34.1691C34.8538 34.6377 34.4428 34.9755 33.9652 34.9755H30.1521C29.8624 34.9755 29.5869 34.8499 29.3969 34.6311L24.8609 29.4058C24.475 28.9612 23.7905 28.9446 23.3834 29.3697L17.8315 35.1683C17.4735 35.5422 16.8895 35.5811 16.4851 35.2581L10.9274 30.8193C10.5416 30.5112 9.98869 30.5307 9.62563 30.8653L5.72197 34.4627C5.39282 34.7661 4.9022 34.8137 4.52082 34.5794Z" fill="url(#paint0_linear_1831_5109)"/>
<path d="M1 32.4163L4.52082 34.5794C4.9022 34.8137 5.39282 34.7661 5.72197 34.4627L9.62563 30.8653C9.98869 30.5307 10.5416 30.5112 10.9274 30.8193L16.4851 35.2581C16.8895 35.5811 17.4735 35.5422 17.8315 35.1683L23.3834 29.3697C23.7905 28.9445 24.475 28.9612 24.8609 29.4058L29.3969 34.6311C29.5869 34.8498 29.8623 34.9755 30.1521 34.9755H33.9652C34.4428 34.9755 34.8538 34.6377 34.9463 34.1691L35.5942 30.885C35.667 30.516 35.9407 30.2191 36.3025 30.1165L41.232 28.7187C41.5442 28.6302 41.8799 28.6986 42.1325 28.9023L44.7612 31.022C45.1469 31.333 45.7022 31.3147 46.0665 30.9789L52.6846 24.88C52.7857 24.7869 52.8665 24.6738 52.9219 24.548L58.5917 11.6864C58.7516 11.3238 59.1105 11.0898 59.5068 11.0898H61.4284C61.8318 11.0898 62.1958 10.8473 62.3512 10.475L65.8828 2.01307C66.2123 1.22355 67.3167 1.18547 67.6998 1.95042L71.488 9.51434C71.8357 10.2085 72.8073 10.259 73.2251 9.60458L76.0878 5.11967C76.4745 4.51385 77.3549 4.5016 77.7583 5.09642L78.4413 6.10342C78.8243 6.66813 79.6479 6.69189 80.0628 6.15021L83.972 1.04653C84.3747 0.520892 85.1678 0.5246 85.5654 1.05398L88.5796 5.06623C88.801 5.36095 89.1666 5.50997 89.5309 5.45401L94.1561 4.74362C94.3747 4.71005 94.5982 4.74989 94.7918 4.8569L98.7984 7.07229C99.007 7.18763 99.1675 7.37371 99.2511 7.59696L103.021 17.6719C103.315 18.4572 104.386 18.5539 104.816 17.8339L108.257 12.0685C108.567 11.5499 109.262 11.4219 109.736 11.7963L111.809 13.4337C111.985 13.5731 112.203 13.649 112.428 13.649H119.043C119.325 13.649 119.595 13.5293 119.784 13.3197L120.685 12.324C121.191 11.7646 122.11 11.9453 122.367 12.6546L123.876 16.8279C124.019 17.2239 124.395 17.4878 124.817 17.4878H127.137C127.548 17.4878 127.917 17.7388 128.067 18.1207L131.116 25.846C131.332 26.3954 131.976 26.6382 132.502 26.369L135.301 24.936C135.546 24.8101 135.729 24.5883 135.806 24.323L137.185 19.5429" stroke="#11CABE" stroke-linecap="round"/>
<defs>
<linearGradient id="paint0_linear_1831_5109" x1="69.5" y1="0" x2="69.5" y2="38" gradientUnits="userSpaceOnUse">
<stop offset="0.260417" stop-color="#BCFFE9" stop-opacity="0.4"/>
<stop offset="1" stop-opacity="0"/>
</linearGradient>
</defs>
</svg>
