<svg width="138" height="38" viewBox="0 0 138 38" fill="none" xmlns="http://www.w3.org/2000/svg">
<path d="M5.33513 34.1056H1V37C1 37.5523 1.44771 38 2 38H137C137.552 38 138 37.5523 138 37V9.22857L132.588 21.94C132.204 22.8413 130.888 22.7106 130.689 21.7515L129.128 14.2327C128.987 13.5546 128.217 13.2214 127.626 13.5834L125.095 15.1352C124.631 15.4202 124.023 15.2804 123.73 14.8209L121.569 11.4374C121.234 10.9132 120.507 10.8186 120.049 11.2397L112.235 18.4267C111.949 18.69 111.536 18.7635 111.177 18.615L109.724 18.0151C109.234 17.8128 108.671 18.0278 108.441 18.5053L104.406 26.8789C104.032 27.6569 102.913 27.6258 102.582 26.8282L99.3095 18.9449C99.2856 18.8873 99.2564 18.8322 99.2222 18.7801L95.0182 12.3662C94.6496 11.8038 93.842 11.7582 93.4125 12.2756L91.5029 14.5755C91.1835 14.9603 90.6289 15.0499 90.2045 14.7853L85.0214 11.5538C84.4487 11.1967 83.6939 11.4979 83.5244 12.1512L81.8318 18.675C81.8003 18.7962 81.7464 18.9104 81.6729 19.0116L79.5817 21.8901C79.2123 22.3986 78.4709 22.4443 78.0419 21.985L75.3706 19.125C75.2098 18.9528 74.9933 18.8429 74.7594 18.8148L72.4052 18.5312C72.0285 18.4858 71.7098 18.2311 71.5826 17.8736L67.3958 6.10678C67.133 5.36822 66.1612 5.20548 65.6721 5.81812L63.7621 8.21069C63.2705 8.82643 62.2931 8.65832 62.0355 7.91373L60.0587 2.19927C59.7715 1.36926 58.6305 1.28604 58.226 2.06561L54.5808 9.0904C54.4088 9.42181 54.0666 9.62981 53.6932 9.62981H48.1763C47.8404 9.62981 47.5269 9.79844 47.3418 10.0787L45.5578 12.78C45.1626 13.3785 44.2843 13.3785 43.889 12.78L43.0154 11.4572C42.5431 10.7421 41.449 10.9134 41.218 11.7386L34.8624 34.4334C34.7786 34.7327 34.5604 34.9759 34.272 35.0917L30.5747 36.5762C30.097 36.768 29.5516 36.5657 29.3145 36.1087L26.5549 30.7906C26.2615 30.2253 25.5215 30.0745 25.0305 30.4801L18.2665 36.0666C17.753 36.4907 16.9761 36.3038 16.7118 35.6925L15.2105 32.2206C15.1757 32.1402 15.1304 32.0646 15.0759 31.9959L10.7908 26.5964C10.3192 26.0022 9.38352 26.1289 9.08703 26.8273L6.2556 33.4964C6.09879 33.8657 5.73639 34.1056 5.33513 34.1056Z" fill="url(#paint0_linear_1831_6196)"/>
<path d="M1 34.1056H5.33513C5.73639 34.1056 6.09879 33.8657 6.2556 33.4964L9.08703 26.8273C9.38352 26.1289 10.3192 26.0022 10.7908 26.5964L15.0759 31.9959C15.1304 32.0646 15.1757 32.1402 15.2105 32.2206L16.7118 35.6925C16.9761 36.3038 17.7529 36.4907 18.2665 36.0666L25.0305 30.4801C25.5215 30.0745 26.2615 30.2253 26.5549 30.7906L29.3145 36.1087C29.5516 36.5657 30.097 36.768 30.5747 36.5762L34.272 35.0917C34.5604 34.9759 34.7786 34.7327 34.8624 34.4334L41.218 11.7386C41.449 10.9134 42.5431 10.7421 43.0154 11.4572L43.889 12.78C44.2843 13.3785 45.1626 13.3785 45.5578 12.78L47.3418 10.0787C47.5269 9.79844 47.8404 9.62981 48.1763 9.62981H53.6932C54.0666 9.62981 54.4088 9.42181 54.5808 9.0904L58.226 2.06561C58.6305 1.28604 59.7715 1.36926 60.0587 2.19927L62.0355 7.91373C62.2931 8.65832 63.2705 8.82643 63.7621 8.21069L65.6721 5.81812C66.1612 5.20548 67.133 5.36822 67.3958 6.10678L71.5826 17.8736C71.7098 18.2311 72.0285 18.4858 72.4052 18.5312L74.7594 18.8148C74.9933 18.8429 75.2098 18.9528 75.3706 19.125L78.0419 21.985C78.4709 22.4443 79.2123 22.3986 79.5817 21.8901L81.6729 19.0116C81.7464 18.9104 81.8003 18.7962 81.8318 18.675L83.5244 12.1512C83.6939 11.4979 84.4487 11.1967 85.0214 11.5538L90.2045 14.7853C90.6289 15.0499 91.1835 14.9603 91.5029 14.5755L93.4125 12.2756C93.842 11.7582 94.6496 11.8038 95.0182 12.3662L99.2222 18.7801C99.2564 18.8322 99.2856 18.8873 99.3095 18.9449L102.582 26.8282C102.913 27.6258 104.032 27.6569 104.406 26.8789L108.441 18.5053C108.671 18.0278 109.234 17.8128 109.724 18.0151L111.177 18.615C111.536 18.7635 111.949 18.69 112.235 18.4267L120.049 11.2397C120.507 10.8186 121.234 10.9132 121.569 11.4374L123.73 14.8209C124.023 15.2804 124.631 15.4202 125.095 15.1352L127.626 13.5834C128.217 13.2214 128.987 13.5546 129.128 14.2327L130.634 21.4863C130.837 22.4682 132.198 22.5725 132.549 21.6331L137.185 9.22857" stroke="#FA2256" stroke-linecap="round"/>
<defs>
<linearGradient id="paint0_linear_1831_6196" x1="69.5" y1="0" x2="69.5" y2="38" gradientUnits="userSpaceOnUse">
<stop offset="0.104167" stop-color="#FCE2ED" stop-opacity="0.38"/>
<stop offset="1" stop-color="#2C2C2C" stop-opacity="0"/>
</linearGradient>
</defs>
</svg>
