<svg width="139" height="39" viewBox="0 0 139 39" fill="none" xmlns="http://www.w3.org/2000/svg">
<path d="M4.15569 31.6791L1 29.1185V38C1 38.5523 1.44772 39 2 39H137C137.552 39 138 38.5523 138 38V6.03614L132.784 10.065C132.359 10.3932 131.751 10.3274 131.406 9.9158L126.574 4.14728C126.268 3.78152 125.746 3.68317 125.327 3.91237L124.462 4.38616C124.046 4.61385 123.528 4.51843 123.221 4.15763L121.083 1.64888C120.765 1.275 120.222 1.18782 119.802 1.44318L117.97 2.55817C117.84 2.63748 117.693 2.68593 117.541 2.69979L109.194 3.46177C108.816 3.49626 108.49 3.74166 108.353 4.09533L104.317 14.4777C104.006 15.2779 102.898 15.34 102.499 14.5795L98.7439 7.41143C98.5712 7.08195 98.23 6.8755 97.8581 6.8755H94.1918C93.7306 6.8755 93.3293 7.19089 93.2202 7.63898L91.753 13.6662C91.6439 14.1143 91.2425 14.4297 90.7813 14.4297H88.5441C88.4153 14.4297 88.2876 14.4048 88.1682 14.3564L85.0366 13.0858C84.5662 12.895 84.0275 13.0868 83.7836 13.5321L79.7657 20.8678C79.4544 21.4361 78.693 21.5628 78.2144 21.1259L77.293 20.2847C76.8282 19.8604 76.0917 19.9658 75.7645 20.5034L74.9141 21.9008C74.5336 22.526 73.6325 22.5441 73.2272 21.9347L67.2776 12.9892C66.8434 12.3362 65.8609 12.4144 65.5353 13.1277L64.3065 15.8197C64.1164 16.2363 63.6677 16.4705 63.2172 16.3883L60.1286 15.8244C59.6891 15.7441 59.2496 15.9652 59.0521 16.366L55.5023 23.5672C55.345 23.8862 55.0302 24.0976 54.6754 24.1226L49.7539 24.4682C49.4494 24.4895 49.1713 24.6489 48.9988 24.9008L45.7208 29.6886C45.2715 30.3449 44.2729 30.2393 43.9707 29.5036L42.4822 25.8801C42.2121 25.2226 41.3614 25.0489 40.8552 25.548L31.4018 34.8682C30.9183 35.3448 30.1106 35.2115 29.806 34.6048L26.1888 27.4004C25.8336 26.6928 24.8361 26.6591 24.4338 27.341L22.3354 30.8985C22.2142 31.104 22.0236 31.2593 21.798 31.3366L19.3608 32.1709C18.8603 32.3422 18.313 32.0941 18.1119 31.6048L15.9661 26.3811C15.812 26.006 15.4466 25.761 15.0411 25.761H13.461C13.1418 25.761 12.8417 25.6086 12.6534 25.3508L11.1786 23.3313C10.7331 22.7213 9.79817 22.8065 9.47021 23.4869L5.68661 31.3368C5.40636 31.9183 4.65689 32.0858 4.15569 31.6791Z" fill="url(#paint0_linear_1831_4030)"/>
<path d="M1 29.1185L4.15569 31.6791C4.65689 32.0858 5.40637 31.9183 5.68661 31.3368L9.47021 23.4869C9.79817 22.8065 10.7331 22.7213 11.1786 23.3313L12.6534 25.3508C12.8417 25.6086 13.1418 25.761 13.461 25.761H15.0411C15.4466 25.761 15.812 26.006 15.9661 26.3811L18.1119 31.6048C18.313 32.0941 18.8603 32.3422 19.3608 32.1709L21.798 31.3366C22.0236 31.2593 22.2142 31.104 22.3354 30.8985L24.4338 27.341C24.8361 26.6591 25.8336 26.6928 26.1888 27.4004L29.806 34.6048C30.1106 35.2115 30.9183 35.3448 31.4018 34.8682L40.8552 25.548C41.3614 25.0489 42.2121 25.2226 42.4822 25.8801L43.9707 29.5036C44.2729 30.2393 45.2715 30.3449 45.7208 29.6886L48.9988 24.9008C49.1713 24.6489 49.4494 24.4895 49.7539 24.4682L54.6754 24.1226C55.0302 24.0976 55.345 23.8862 55.5023 23.5672L59.0521 16.366C59.2496 15.9652 59.6891 15.7441 60.1286 15.8244L63.2172 16.3883C63.6677 16.4705 64.1164 16.2363 64.3065 15.8197L65.5353 13.1277C65.8609 12.4144 66.8434 12.3362 67.2776 12.9892L73.2272 21.9347C73.6325 22.5441 74.5336 22.526 74.9141 21.9008L75.7645 20.5034C76.0917 19.9658 76.8282 19.8604 77.293 20.2847L78.2144 21.1259C78.693 21.5628 79.4544 21.4361 79.7657 20.8677L83.7836 13.5321C84.0275 13.0868 84.5662 12.895 85.0366 13.0858L88.1682 14.3564C88.2876 14.4048 88.4152 14.4297 88.5441 14.4297H90.7813C91.2425 14.4297 91.6439 14.1143 91.753 13.6662L93.2202 7.63898C93.3293 7.19089 93.7306 6.8755 94.1918 6.8755H97.8581C98.23 6.8755 98.5712 7.08195 98.7439 7.41143L102.499 14.5795C102.898 15.34 104.006 15.2779 104.317 14.4777L108.353 4.09533C108.49 3.74166 108.816 3.49626 109.194 3.46177L117.541 2.69979C117.693 2.68592 117.84 2.63748 117.97 2.55817L119.802 1.44318C120.222 1.18782 120.765 1.275 121.083 1.64888L123.221 4.15763C123.528 4.51843 124.046 4.61385 124.462 4.38616L125.327 3.91237C125.746 3.68317 126.268 3.78152 126.574 4.14728L131.406 9.9158C131.751 10.3274 132.359 10.3932 132.784 10.065L138 6.03614" stroke="#11CABE" stroke-linecap="round"/>
<defs>
<linearGradient id="paint0_linear_1831_4030" x1="69.5" y1="1" x2="69.5" y2="39" gradientUnits="userSpaceOnUse">
<stop offset="0.260417" stop-color="#BCFBFF" stop-opacity="0.4"/>
<stop offset="1" stop-opacity="0"/>
</linearGradient>
</defs>
</svg>
