<svg xmlns="http://www.w3.org/2000/svg"
     width="4.97778in" height="7.8in"
     viewBox="0 0 448 702">
  <path fill="none" stroke="black" stroke-width="1"
        d="M 903.54,352.34
           C 903.54,352.34 901.97,351.08 901.97,351.08
             901.97,351.08 901.97,351.08 901.97,351.08
             901.97,351.08 903.54,352.34 903.54,352.34 Z
           M 910.81,343.18
           C 910.81,343.18 909.23,341.94 909.23,341.94
             909.23,341.94 909.23,341.94 909.23,341.94
             909.23,341.94 910.81,343.18 910.81,343.18 Z
           M 981.42,204.89
           C 981.42,204.89 983.42,205.11 983.42,205.11
             983.42,205.11 983.42,205.11 983.42,205.11
             983.42,205.11 981.42,204.89 981.42,204.89 Z
           M 937.08,130.73
           C 937.08,130.73 936.29,132.57 936.29,132.57
             936.29,132.57 936.25,132.55 936.25,132.55
             936.25,132.55 936.21,132.53 936.21,132.53
             936.21,132.53 937.08,130.73 937.08,130.73 Z
           M 672.81,30.30
           C 672.81,30.30 673.39,28.39 673.39,28.39
             673.39,28.39 673.39,28.39 673.39,28.39
             673.39,28.39 672.81,30.30 672.81,30.30 Z
           M 603.67,7.57
           C 603.67,7.57 604.36,5.70 604.36,5.70
             604.36,5.70 604.36,5.70 604.36,5.70
             604.36,5.70 603.67,7.57 603.67,7.57 Z
           M 464.17,19.67
           C 464.17,19.67 463.49,17.79 463.49,17.79
             463.49,17.79 463.49,17.79 463.49,17.79
             463.49,17.79 464.17,19.67 464.17,19.67 Z
           M 316.33,111.70
           C 316.33,111.70 314.84,110.35 314.84,110.35
             314.84,110.35 314.86,110.33 314.86,110.33
             314.86,110.33 314.88,110.31 314.88,110.31
             314.88,110.31 316.33,111.70 316.33,111.70 Z
           M 44.47,314.96
           C 44.47,314.96 43.51,313.20 43.51,313.20
             43.51,313.20 43.52,313.20 43.52,313.20
             43.52,313.20 44.47,314.96 44.47,314.96 Z
           M 1.63,376.91
           C 1.63,376.91 3.61,377.18 3.61,377.18
             3.61,377.18 3.61,377.18 3.61,377.18
             3.61,377.18 1.63,376.91 1.63,376.91 Z
           M 76.65,535.32
           C 76.65,535.32 78.17,534.03 78.17,534.03
             78.17,534.03 75.27,536.76 75.27,536.76
             75.27,536.76 76.65,535.32 76.65,535.32 Z
           M 76.65,535.31
           C 76.65,535.31 75.13,536.60 75.13,536.60
             75.13,536.60 78.03,533.88 78.03,533.88
             78.03,533.88 76.65,535.31 76.65,535.31 Z
           M 240.41,665.29
           C 240.41,665.29 239.47,667.05 239.47,667.05
             239.47,667.05 240.41,665.29 240.41,665.29 Z
           M 334.86,698.16
           C 334.86,698.16 334.54,700.13 334.54,700.13
             334.54,700.13 334.54,700.13 334.54,700.13
             334.54,700.13 334.86,698.16 334.86,698.16 Z
           M 444.78,695.15
           C 444.78,695.15 444.37,693.19 444.37,693.19
             444.37,693.19 444.38,693.19 444.38,693.19
             444.38,693.19 444.40,693.19 444.40,693.19
             444.40,693.19 444.78,695.15 444.78,695.15 Z
           M 586.84,628.88
           C 586.84,628.88 587.92,630.57 587.92,630.57
             587.92,630.57 586.84,628.88 586.84,628.88 Z
           M 760.72,498.00
           C 760.72,498.00 762.04,499.50 762.04,499.50
             762.04,499.50 760.72,498.00 760.72,498.00 Z
           M 19.95,337.18
           C 19.95,337.18 21.51,338.44 21.51,338.44
             21.51,338.44 21.51,338.44 21.51,338.44
             21.51,338.44 19.95,337.18 19.95,337.18 Z
           M 45.31,316.49
           C 45.31,316.49 44.35,314.73 44.35,314.73
             44.35,314.73 44.35,314.73 44.35,314.73
             44.35,314.73 45.31,316.49 45.31,316.49 Z
           M 317.61,112.89
           C 317.61,112.89 316.12,111.54 316.12,111.54
             316.12,111.54 316.14,111.52 316.14,111.52
             316.14,111.52 316.16,111.50 316.16,111.50
             316.16,111.50 317.61,112.89 317.61,112.89 Z
           M 464.76,21.31
           C 464.76,21.31 464.08,19.43 464.08,19.43
             464.08,19.43 464.08,19.43 464.08,19.43
             464.08,19.43 464.76,21.31 464.76,21.31 Z
           M 603.07,9.20
           C 603.07,9.20 603.76,7.33 603.76,7.33
             603.76,7.33 603.76,7.33 603.76,7.33
             603.76,7.33 603.07,9.20 603.07,9.20 Z
           M 672.29,31.96
           C 672.29,31.96 672.88,30.05 672.88,30.05
             672.88,30.05 672.88,30.05 672.88,30.05
             672.88,30.05 672.29,31.96 672.29,31.96 Z
           M 936.35,132.31
           C 936.35,132.31 935.57,134.14 935.57,134.14
             935.57,134.14 935.53,134.13 935.53,134.13
             935.53,134.13 935.49,134.10 935.49,134.10
             935.49,134.10 936.35,132.31 936.35,132.31 Z
           M 979.69,204.70
           C 979.69,204.70 981.68,204.92 981.68,204.92
             981.68,204.92 981.68,204.92 981.68,204.92
             981.68,204.92 979.69,204.70 979.69,204.70 Z
           M 909.43,342.10
           C 909.43,342.10 911.02,343.34 911.02,343.34
             911.02,343.34 911.01,343.34 911.01,343.34
             911.01,343.34 909.43,342.10 909.43,342.10 Z
           M 759.56,496.69
           C 759.56,496.69 758.23,495.18 758.23,495.18
             758.23,495.18 758.23,495.18 758.23,495.18
             758.23,495.18 759.56,496.69 759.56,496.69 Z
           M 585.90,627.41
           C 585.90,627.41 586.98,629.10 586.98,629.10
             586.98,629.10 586.98,629.10 586.98,629.10
             586.98,629.10 585.90,627.41 585.90,627.41 Z
           M 444.43,693.44
           C 444.43,693.44 444.01,691.49 444.01,691.49
             444.01,691.49 444.03,691.48 444.03,691.48
             444.03,691.48 444.05,691.48 444.05,691.48
             444.05,691.48 444.43,693.44 444.43,693.44 Z
           M 335.13,696.45
           C 335.13,696.45 334.82,698.42 334.82,698.42
             334.82,698.42 334.82,698.42 334.82,698.42
             334.82,698.42 335.13,696.45 335.13,696.45 Z
           M 241.22,663.76
           C 241.22,663.76 242.16,662.00 242.16,662.00
             242.16,662.00 242.16,662.00 242.16,662.00
             242.16,662.00 241.22,663.76 241.22,663.76 Z
           M 77.86,534.06
           C 77.86,534.06 76.47,535.50 76.47,535.50
             76.47,535.50 76.40,535.43 76.40,535.43
             76.40,535.43 76.33,535.35 76.33,535.35
             76.33,535.35 77.86,534.06 77.86,534.06 Z
           M 77.85,534.06
           C 77.85,534.06 79.23,532.62 79.23,532.62
             79.23,532.62 79.31,532.70 79.31,532.70
             79.31,532.70 79.38,532.78 79.38,532.78
             79.38,532.78 77.85,534.06 77.85,534.06 Z
           M 3.36,377.15
           C 3.36,377.15 5.35,377.42 5.35,377.42
             5.35,377.42 5.35,377.42 5.35,377.42
             5.35,377.42 3.36,377.15 3.36,377.15 Z
           M 901.97,351.08
           C 904.44,348.02 906.86,344.97 909.23,341.94
             909.23,341.94 912.40,344.41 912.40,344.41
             910.02,347.46 907.59,350.52 905.10,353.60
             905.10,353.60 901.97,351.08 901.97,351.08 Z
           M 909.23,341.94
           C 952.21,286.89 975.67,240.73 979.43,204.67
             979.43,204.67 983.42,205.11 983.42,205.11
             979.54,242.32 955.49,289.21 912.40,344.41
             912.40,344.41 909.23,341.94 909.23,341.94 Z
           M 979.43,204.67
           C 981.22,187.50 978.44,172.96 971.30,161.02
             964.16,149.08 952.53,139.54 936.29,132.57
             936.29,132.57 937.86,128.90 937.86,128.90
             954.69,136.13 967.06,146.17 974.74,159.00
             982.42,171.84 985.28,187.28 983.42,205.11
             983.42,205.11 979.43,204.67 979.43,204.67 Z
           M 936.21,132.53
           C 834.21,82.89 740.64,53.61 672.22,32.20
             672.22,32.20 673.39,28.39 673.39,28.39
             741.81,49.80 835.65,79.16 937.94,128.94
             937.94,128.94 936.21,132.53 936.21,132.53 Z
           M 672.22,32.20
           C 645.11,23.72 621.62,16.37 602.98,9.44
             602.98,9.44 604.36,5.70 604.36,5.70
             622.87,12.58 646.25,19.90 673.39,28.39
             673.39,28.39 672.22,32.20 672.22,32.20 Z
           M 602.99,9.44
           C 570.99,-2.40 520.69,1.83 464.85,21.55
             464.85,21.55 463.49,17.79 463.49,17.79
             519.63,-2.04 571.03,-6.63 604.36,5.70
             604.36,5.70 602.99,9.44 602.99,9.44 Z
           M 464.85,21.55
           C 407.94,41.66 354.33,75.05 317.78,113.08
             317.78,113.08 314.88,110.31 314.88,110.31
             351.91,71.77 406.07,38.07 463.49,17.79
             463.49,17.79 464.85,21.55 464.85,21.55 Z
           M 317.81,113.05
           C 246.84,190.88 126.87,273.16 45.43,316.72
             45.43,316.72 43.52,313.20 43.52,313.20
             124.72,269.76 244.27,187.74 314.84,110.35
             314.84,110.35 317.81,113.05 317.81,113.05 Z
           M 45.43,316.72
           C 21.53,329.54 7.10,350.41 3.61,377.18
             3.61,377.18 -0.36,376.64 -0.36,376.64
             3.29,348.59 18.49,326.62 43.51,313.20
             43.51,313.20 45.43,316.72 45.43,316.72 Z
           M 3.61,377.18
           C -2.51,424.19 25.74,484.29 78.03,533.88
             78.03,533.88 75.27,536.76 75.27,536.76
             22.53,486.74 -6.71,425.45 -0.36,376.64
             -0.36,376.64 3.61,377.18 3.61,377.18 Z
           M 75.13,536.61
           C 75.13,536.61 75.13,536.60 75.13,536.60
             75.13,536.60 78.17,534.02 78.17,534.02
             78.17,534.02 78.17,534.03 78.17,534.03
             78.17,534.03 75.13,536.61 75.13,536.61 Z
           M 78.03,533.88
           C 130.95,584.58 183.10,632.46 241.34,663.54
             241.34,663.54 239.47,667.05 239.47,667.05
             180.67,635.68 128.15,587.41 75.26,536.75
             75.26,536.75 78.03,533.88 78.03,533.88 Z
           M 241.34,663.54
           C 272.72,680.27 303.40,690.95 335.17,696.19
             335.17,696.19 334.54,700.13 334.54,700.13
             302.30,694.81 271.20,683.98 239.47,667.05
             239.47,667.05 241.34,663.54 241.34,663.54 Z
           M 335.17,696.19
           C 370.45,702.02 406.16,701.04 444.37,693.19
             444.37,693.19 445.20,697.10 445.20,697.10
             406.56,705.05 370.36,706.04 334.54,700.13
             334.54,700.13 335.17,696.19 335.17,696.19 Z
           M 444.40,693.19
           C 478.47,686.75 527.34,664.00 585.76,627.19
             585.76,627.19 587.92,630.57 587.92,630.57
             529.41,667.44 480.02,690.53 445.17,697.11
             445.17,697.11 444.40,693.19 444.40,693.19 Z
           M 585.76,627.19
           C 641.33,592.18 702.99,545.76 759.39,496.49
             759.39,496.49 762.04,499.50 762.04,499.50
             705.51,548.89 643.68,595.43 587.92,630.57
             587.92,630.57 585.76,627.19 585.76,627.19 Z
           M 759.39,496.49
           C 815.71,447.28 864.78,397.22 901.97,351.08
             901.97,351.08 905.10,353.60 905.10,353.60
             867.73,399.95 818.50,450.18 762.04,499.50
             762.04,499.50 759.39,496.49 759.39,496.49 Z
           M 18.38,335.92
           C 25.22,327.45 33.92,320.33 44.35,314.73
             44.35,314.73 46.27,318.25 46.27,318.25
             36.27,323.61 27.99,330.40 21.51,338.44
             21.51,338.44 18.38,335.92 18.38,335.92 Z
           M 44.35,314.73
           C 125.69,271.23 245.43,189.06 316.12,111.54
             316.12,111.54 319.10,114.24 319.10,114.24
             248.00,192.20 127.84,274.63 46.27,318.25
             46.27,318.25 44.35,314.73 44.35,314.73 Z
           M 316.16,111.50
           C 352.99,73.16 406.91,39.62 464.08,19.43
             464.08,19.43 465.45,23.19 465.45,23.19
             408.78,43.21 355.41,76.44 319.06,114.27
             319.06,114.27 316.16,111.50 316.16,111.50 Z
           M 464.08,19.43
           C 519.85,-0.27 570.81,-4.86 603.76,7.33
             603.76,7.33 602.39,11.07 602.39,11.07
             570.77,-0.63 520.91,3.60 465.45,23.19
             465.45,23.19 464.08,19.43 464.08,19.43 Z
           M 603.76,7.33
           C 622.31,14.23 645.71,21.55 672.88,30.05
             672.88,30.05 671.71,33.86 671.71,33.86
             644.57,25.37 621.06,18.01 602.38,11.07
             602.38,11.07 603.76,7.33 603.76,7.33 Z
           M 672.88,30.05
           C 741.25,51.45 835.01,80.78 937.22,130.52
             937.22,130.52 935.49,134.10 935.49,134.10
             833.57,84.51 740.07,55.25 671.71,33.86
             671.71,33.86 672.88,30.05 672.88,30.05 Z
           M 937.14,130.48
           C 953.59,137.55 965.69,147.35 973.20,159.89
             980.70,172.43 983.49,187.51 981.68,204.92
             981.68,204.92 977.69,204.48 977.69,204.48
             979.44,187.73 976.73,173.56 969.76,161.91
             962.79,150.27 951.44,140.96 935.57,134.14
             935.57,134.14 937.14,130.48 937.14,130.48 Z
           M 981.68,204.92
           C 977.84,241.80 953.90,288.40 911.02,343.34
             911.02,343.34 907.84,340.87 907.84,340.87
             950.63,286.07 973.97,240.21 977.69,204.48
             977.69,204.48 981.68,204.92 981.68,204.92 Z
           M 911.01,343.34
           C 872.92,392.11 821.01,445.66 760.88,498.19
             760.88,498.19 758.23,495.18 758.23,495.18
             818.22,442.77 869.94,389.39 907.85,340.87
             907.85,340.87 911.01,343.34 911.01,343.34 Z
           M 760.88,498.19
           C 704.42,547.52 642.67,594.01 586.98,629.10
             586.98,629.10 584.82,625.72 584.82,625.72
             640.31,590.75 701.90,544.39 758.23,495.18
             758.23,495.18 760.88,498.19 760.88,498.19 Z
           M 586.98,629.10
           C 528.65,665.85 479.47,688.86 444.82,695.40
             444.82,695.40 444.05,691.48 444.05,691.48
             477.92,685.08 526.58,662.42 584.82,625.72
             584.82,625.72 586.98,629.10 586.98,629.10 Z
           M 444.85,695.40
           C 406.41,703.30 370.42,704.29 334.82,698.42
             334.82,698.42 335.44,694.48 335.44,694.48
             370.51,700.27 406.01,699.30 444.01,691.49
             444.01,691.49 444.85,695.40 444.85,695.40 Z
           M 334.82,698.42
           C 302.77,693.12 271.84,682.35 240.29,665.52
             240.29,665.52 242.16,662.00 242.16,662.00
             273.37,678.65 303.87,689.26 335.44,694.48
             335.44,694.48 334.82,698.42 334.82,698.42 Z
           M 240.29,665.52
           C 181.68,634.26 129.27,586.08 76.47,535.50
             76.47,535.50 79.24,532.63 79.24,532.63
             132.06,583.24 184.11,631.04 242.16,662.00
             242.16,662.00 240.29,665.52 240.29,665.52 Z
           M 76.33,535.35
           C 76.33,535.35 76.33,535.34 76.33,535.34
             76.33,535.34 79.38,532.78 79.38,532.78
             79.38,532.78 79.38,532.78 79.38,532.78
             79.38,532.78 76.33,535.35 76.33,535.35 Z
           M 76.48,535.50
           C 24.14,485.87 -4.91,425.14 1.38,376.88
             1.38,376.88 5.35,377.42 5.35,377.42
             -0.70,423.88 27.34,483.41 79.23,532.62
             79.23,532.62 76.48,535.50 76.48,535.50 Z
           M 1.38,376.88
           C 3.42,361.15 9.18,347.34 18.38,335.92
             18.38,335.92 21.51,338.44 21.51,338.44
             12.80,349.24 7.31,362.36 5.35,377.42
             5.35,377.42 1.38,376.88 1.38,376.88 Z
           M 903.54,352.34
           C 906.02,349.27 908.44,346.21 910.81,343.18
             953.85,288.05 977.61,241.53 981.42,204.89
             985.07,169.89 970.15,144.94 937.08,130.73
             834.93,81.03 741.23,51.71 672.81,30.30
             645.68,21.81 622.25,14.48 603.67,7.57
             571.01,-4.52 520.16,-0.11 464.17,19.67
             407.00,39.87 353.12,73.41 316.33,111.70
             245.56,189.31 125.80,271.46 44.47,314.96
             20.01,328.08 5.20,349.50 1.63,376.91
             -4.61,424.82 24.14,485.52 76.65,535.32
             76.65,535.32 76.65,535.31 76.65,535.31
             129.55,586.00 181.88,634.08 240.41,665.29
             271.96,682.13 302.85,692.88 334.86,698.16
             370.40,704.03 406.36,703.04 444.78,695.15
             479.24,688.64 528.37,665.72 586.84,628.88
             642.50,593.81 704.25,547.32 760.72,498.00
             817.11,448.73 866.26,398.59 903.54,352.34 Z
           M 19.95,337.18
           C 26.60,328.92 35.10,321.97 45.31,316.49
             126.76,272.93 246.72,190.63 317.61,112.89
             354.20,74.80 407.85,41.42 464.76,21.31
             520.38,1.67 570.79,-2.75 603.07,9.20
             621.69,16.12 645.14,23.46 672.29,31.96
             740.66,53.35 834.29,82.65 936.35,132.31
             968.68,146.19 983.25,170.54 979.69,204.70
             975.90,241.01 952.27,287.24 909.43,342.10
             871.43,390.75 819.62,444.22 759.56,496.69
             703.16,545.96 641.49,592.38 585.90,627.41
             527.61,664.14 478.69,686.97 444.43,693.44
             406.21,701.30 370.46,702.28 335.13,696.45
             303.32,691.19 272.61,680.50 241.22,663.76
             182.90,632.65 130.66,584.66 77.86,534.06
             77.86,534.06 77.85,534.06 77.85,534.06
             25.74,484.64 -2.80,424.51 3.36,377.15
             5.36,361.75 10.99,348.29 19.95,337.18 Z" />
</svg>
