<svg width="44" height="44" viewBox="0 0 44 44" fill="none" xmlns="http://www.w3.org/2000/svg">
<g clip-path="url(#clip0_1816_4021)">
<path d="M43.9608 21.9921C43.9608 34.0823 34.1604 43.8827 22.0702 43.8827C9.98052 43.8827 0.179688 34.0823 0.179688 21.9921C0.179688 9.90218 9.98052 0.101562 22.0702 0.101562C34.1604 0.101562 43.9608 9.90218 43.9608 21.9921Z" fill="#1BA27A"/>
<path d="M32.3444 11.1401H11.6162V16.1443H19.4782V23.4995H24.4824V16.1443H32.3444V11.1401Z" fill="white"/>
<path d="M22.0279 24.2828C15.5242 24.2828 10.2514 23.2535 10.2514 21.9837C10.2514 20.714 15.524 19.6845 22.0279 19.6845C28.5316 19.6845 33.8041 20.714 33.8041 21.9837C33.8041 23.2535 28.5316 24.2828 22.0279 24.2828ZM35.2509 22.367C35.2509 20.7296 29.3308 19.4023 22.0279 19.4023C14.7252 19.4023 8.80469 20.7296 8.80469 22.367C8.80469 23.8089 13.3954 25.0103 19.4785 25.2765V35.8351H24.4823V25.2806C30.6123 25.0227 35.2509 23.8164 35.2509 22.367Z" fill="white"/>
</g>
<defs>
<clipPath id="clip0_1816_4021">
<rect width="44" height="44" fill="white"/>
</clipPath>
</defs>
</svg>
