<svg width="44" height="44" viewBox="0 0 44 44" fill="none" xmlns="http://www.w3.org/2000/svg">
<g clip-path="url(#clip0_1831_4826)">
<ellipse cx="22" cy="22.0001" rx="22" ry="22.0001" fill="#F3BA2F"/>
<path d="M16.3029 19.6596L21.9997 13.9629L27.6991 19.6621L31.0138 16.3474L21.9997 7.3335L12.9885 16.3447L16.303 19.6594L16.3029 19.6596ZM7.33301 22.0002L10.6478 18.685L13.9623 21.9995L10.6476 25.3143L7.33301 22.0002ZM16.3029 24.3411L21.9997 30.0376L27.699 24.3384L31.0155 27.6514L31.0138 27.6531L21.9997 36.6669L12.9885 27.6557L12.9838 27.651L16.3033 24.3408L16.3029 24.3411ZM30.037 22.0016L33.3518 18.6868L36.6663 22.0014L33.3517 25.3162L30.037 22.0016Z" fill="white"/>
<path d="M25.3618 21.9983H25.3632L22 18.6348L19.5141 21.1201L19.2285 21.4058L18.6395 21.9949L18.6348 21.9995L18.6395 22.0043L22 25.3654L25.3635 22.0019L25.3651 22L25.3621 21.9983" fill="white"/>
</g>
<defs>
<clipPath id="clip0_1831_4826">
<rect width="44" height="44" fill="white"/>
</clipPath>
</defs>
</svg>
