<svg width="44" height="44" viewBox="0 0 44 44" fill="none" xmlns="http://www.w3.org/2000/svg">
<g clip-path="url(#clip0_1816_6184)">
<circle cx="22" cy="22" r="22" fill="#7F6EE9"/>
<path d="M22.4879 5.54686V5.56248C22.5036 5.64058 22.5036 5.7343 22.5036 5.82801V17.0898C22.4879 17.1523 22.4411 17.1679 22.3942 17.1992C22.0662 17.3554 21.7538 17.4959 21.4258 17.6365C20.9728 17.8396 20.5042 18.0582 20.0513 18.2613L18.4112 19.011C17.9582 19.2141 17.5053 19.4172 17.0679 19.6202C16.5368 19.8701 15.9901 20.1044 15.4591 20.3543C15.0061 20.5574 14.5531 20.7761 14.0845 20.9791C13.7097 21.1509 13.3348 21.3071 12.9755 21.4789C12.9443 21.4946 12.9131 21.5102 12.8818 21.5102C12.8662 21.5102 12.8662 21.5102 12.8506 21.4946L13.2723 20.7917C14.0845 19.4484 14.8811 18.1207 15.6934 16.7774C16.5525 15.3404 17.4272 13.9034 18.2862 12.4664C19.0828 11.1387 19.8951 9.81104 20.6917 8.48336C21.2696 7.51494 21.8632 6.54652 22.4411 5.5781C22.4567 5.54686 22.4723 5.53124 22.4723 5.5H22.4879C22.4723 5.51562 22.4879 5.53124 22.4879 5.54686Z" fill="#F3F3F3"/>
<path d="M32.0768 21.4944L32.0924 21.51L29.7963 22.869L22.58 27.1331C22.5488 27.1488 22.5176 27.1644 22.5019 27.18C22.4551 27.18 22.4551 27.1331 22.4551 27.1175V26.9769V17.324C22.4551 17.2771 22.4551 17.2146 22.4707 17.1678C22.4863 17.1053 22.5332 17.1209 22.58 17.1365C22.7831 17.2302 23.0018 17.324 23.2048 17.4177C23.814 17.6988 24.4232 17.98 25.0323 18.2455C25.5634 18.4798 26.0788 18.7297 26.6099 18.964C27.141 19.1983 27.6721 19.4482 28.2031 19.6825C28.6561 19.8856 29.1247 20.1043 29.5777 20.3073C30.0306 20.5104 30.4992 20.7291 30.9522 20.9321C31.3114 21.0883 31.6707 21.2601 32.03 21.4163C32.03 21.4632 32.0456 21.4788 32.0768 21.4944Z" fill="#8A8DA7"/>
<path d="M22.486 36.8802C22.486 36.8958 22.4704 36.9114 22.4704 36.927H22.4547C22.4547 36.8958 22.4235 36.8802 22.4079 36.8489C21.4395 35.49 20.471 34.1155 19.5026 32.7566C18.5186 31.3664 17.5189 29.9607 16.5349 28.5705C15.5821 27.2272 14.6137 25.8683 13.6609 24.525C13.4109 24.1657 13.161 23.8221 12.9111 23.4629C12.8955 23.4316 12.8799 23.416 12.8486 23.3691C12.8955 23.3691 12.9267 23.4004 12.9424 23.416C14.3013 24.2126 15.6446 25.0092 17.0035 25.8058C18.5654 26.7274 20.1118 27.6489 21.6738 28.5705L22.4704 29.0391C22.5016 29.0703 22.5016 29.1016 22.5016 29.1328V36.6615C22.5016 36.7396 22.5016 36.8177 22.486 36.8802Z" fill="#F3F3F3"/>
<path d="M12.833 21.5258V21.5102C13.3328 21.2916 13.817 21.0573 14.3169 20.8386C14.9573 20.5418 15.5977 20.2607 16.2381 19.9639C16.7223 19.7452 17.2221 19.5109 17.7064 19.2922C18.4249 18.9642 19.1277 18.6518 19.8463 18.3238C20.3305 18.1051 20.8147 17.8865 21.3145 17.6522C21.6581 17.496 22.0174 17.3398 22.361 17.1836C22.3923 17.168 22.4391 17.1523 22.4547 17.1211C22.4704 17.1211 22.4704 17.1367 22.4547 17.1523V27.0708C22.4547 27.1177 22.4391 27.1646 22.4704 27.1958C22.4391 27.2427 22.4079 27.1958 22.3923 27.1802C22.2517 27.1021 22.1111 27.024 21.9705 26.9303C18.9559 25.1496 15.9257 23.3534 12.9111 21.5727C12.8955 21.5571 12.8642 21.5415 12.833 21.5258Z" fill="#C5C8D9"/>
<path d="M32.0456 23.3691H32.0612C32.0612 23.4004 32.03 23.4316 32.0143 23.4629C29.1403 27.5084 26.2663 31.5695 23.3923 35.615C23.0955 36.0367 22.7831 36.4584 22.4863 36.8802C22.4707 36.8646 22.4707 36.8489 22.4707 36.8333V36.7396V29.164V29.0235C23.1267 28.633 23.7671 28.2581 24.4232 27.8676C26.9536 26.3681 29.4839 24.8843 31.9987 23.3848C32.0143 23.4004 32.03 23.3848 32.0456 23.3691Z" fill="#C5C8D9"/>
<path d="M22.4707 17.1523V17.1211V17.0274V5.68746C22.4707 5.6406 22.4551 5.60936 22.4863 5.5625C25.6571 10.8263 28.8279 16.0746 31.9831 21.3384C32.0143 21.3853 32.0612 21.4477 32.0768 21.5102C31.8581 21.4321 31.6551 21.3228 31.452 21.2291C31.2021 21.1197 30.9366 20.9948 30.6867 20.8854C30.5305 20.8073 30.3586 20.7448 30.2024 20.6667C29.9369 20.5418 29.6714 20.4325 29.4058 20.3075C29.2496 20.245 29.0934 20.1669 28.9372 20.0888L27.9063 19.6202C27.7345 19.5421 27.5627 19.464 27.3753 19.3859L26.6255 19.0579C26.4693 18.9954 26.3131 18.9173 26.1569 18.8392L25.126 18.3707C24.9542 18.2926 24.7824 18.2145 24.595 18.1364L23.8452 17.8083C23.6734 17.7302 23.5172 17.6521 23.3454 17.574C23.0486 17.4335 22.7518 17.2929 22.4395 17.1679C22.4863 17.1523 22.4707 17.1523 22.4707 17.1523Z" fill="#C5C8D9"/>
</g>
<defs>
<clipPath id="clip0_1816_6184">
<rect width="44" height="44" fill="white"/>
</clipPath>
</defs>
</svg>
